<?xml version="1.0" standalone="no"?>
<!DOCTYPE svg PUBLIC "-//W3C//DTD SVG 20010904//EN"
 "http://www.w3.org/TR/2001/REC-SVG-20010904/DTD/svg10.dtd">
<svg version="1.0" xmlns="http://www.w3.org/2000/svg"
 width="666.000000pt" height="267.000000pt" viewBox="0 0 666.000000 267.000000"
 preserveAspectRatio="xMidYMid meet">

<g transform="translate(0.000000,267.000000) scale(0.100000,-0.100000)"
fill="#000000" stroke="none">
<path d="M4345 2579 c-19 -17 -39 -45 -43 -63 -7 -27 -13 -31 -48 -33 -32 -2
-2189 -76 -2467 -85 l-78 -2 -19 42 c-24 53 -70 82 -130 82 -84 0 -140 -57
-140 -140 0 -78 59 -130 149 -130 42 0 56 5 86 31 19 17 39 45 43 63 l8 31
1190 42 c1395 49 1404 49 1404 27 0 -26 31 -70 60 -88 39 -22 117 -21 158 4
18 11 40 37 49 57 10 21 18 39 19 41 1 1 373 -99 828 -224 713 -195 859 -232
835 -210 -4 4 -1653 456 -1663 456 -3 0 -6 7 -6 15 0 60 -71 115 -148 115 -43
0 -57 -5 -87 -31z"/>
<path d="M103 2130 c-87 -53 -83 -188 7 -235 37 -19 113 -19 149 0 l29 14 883
-639 884 -639 -3 -55 c-3 -44 1 -61 18 -86 29 -41 69 -60 127 -60 65 0 109 28
134 85 11 25 25 45 32 45 7 0 452 52 991 116 932 111 980 116 1006 100 16 -9
49 -16 75 -16 114 0 178 103 129 206 -21 43 -59 64 -119 64 -89 0 -145 -51
-145 -132 0 -27 5 -58 10 -69 6 -10 8 -19 5 -19 -4 0 -440 -52 -969 -115 -530
-63 -972 -115 -983 -115 -13 0 -23 11 -32 35 -29 81 -148 112 -226 60 -36 -25
-38 -25 -65 -8 -15 10 -412 297 -883 637 l-855 620 14 28 c32 62 9 154 -46
183 -42 22 -128 19 -167 -5z m2157 -1465 c42 -21 60 -53 60 -103 0 -37 -6 -50
-34 -78 -31 -31 -40 -34 -91 -34 -51 0 -60 3 -91 34 -29 29 -34 41 -34 80 0
36 4 46 16 46 10 0 14 5 10 15 -8 22 50 55 97 55 21 0 51 -7 67 -15z"/>
<path d="M4300 1935 c0 -8 -12 -25 -26 -39 -28 -25 -27 -63 0 -53 17 7 23 -21
32 -166 4 -59 11 -110 15 -113 5 -3 9 -14 9 -25 0 -10 6 -19 14 -19 21 0 150
141 174 191 29 60 29 132 1 160 -30 30 -82 49 -134 49 -31 0 -47 5 -51 15 -8
19 -34 20 -34 0z m164 -83 c17 -10 32 -28 34 -41 5 -34 -41 -120 -91 -170
l-45 -43 -6 58 c-3 33 -8 97 -12 143 l-6 84 47 -7 c27 -3 62 -14 79 -24z"/>
<path d="M2637 1933 c-4 -3 -7 -37 -7 -73 0 -66 -1 -68 -30 -80 -39 -16 -37
-45 3 -45 l27 1 0 -76 c0 -110 9 -150 31 -150 18 0 19 10 19 124 0 106 2 125
16 130 9 4 18 5 20 4 1 -2 6 -58 10 -125 l7 -122 45 2 45 2 14 70 c17 81 53
177 69 182 19 6 34 -48 42 -157 5 -83 10 -105 22 -105 9 0 16 11 18 28 4 31 8
33 28 12 9 -8 19 -15 23 -15 21 0 62 45 85 93 24 51 24 52 31 24 10 -39 -2
-132 -22 -174 -16 -36 -57 -63 -93 -63 -16 0 -21 -5 -18 -22 2 -19 9 -23 39
-22 48 1 94 35 121 87 18 36 21 57 20 157 -3 163 -9 197 -37 204 -52 13 -108
-34 -149 -124 -23 -50 -25 -52 -25 -24 -1 52 -30 133 -52 145 -35 18 -75 -6
-102 -63 l-24 -50 5 56 c4 47 2 57 -14 63 -10 4 -19 2 -22 -5 -2 -8 -8 -8 -21
0 -13 8 -27 8 -50 0 l-31 -11 0 53 c0 58 -21 92 -43 69z m478 -210 c-14 -31
-35 -72 -48 -92 -20 -32 -22 -34 -25 -14 -5 31 36 120 66 143 13 11 26 20 28
20 2 0 -7 -25 -21 -57z"/>
<path d="M3477 1934 c-4 -4 -7 -38 -7 -74 0 -66 -1 -68 -30 -80 -32 -13 -34
-17 -21 -39 5 -8 18 -12 30 -8 20 5 21 1 22 -56 1 -106 12 -161 32 -165 15 -3
17 8 17 122 0 69 2 126 4 126 2 0 11 3 20 6 13 5 16 -11 18 -118 3 -115 4
-123 23 -126 18 -2 23 6 34 60 24 121 87 226 112 187 11 -19 22 -153 16 -199
-5 -40 6 -62 29 -53 10 4 14 23 14 64 0 43 4 59 14 59 8 0 16 -16 20 -39 11
-72 79 -102 136 -61 31 22 66 100 57 125 -12 30 -35 15 -46 -30 -23 -92 -111
-84 -111 10 0 18 13 30 55 54 71 40 77 56 37 93 -62 55 -130 28 -139 -55 -7
-58 -19 -60 -28 -4 -10 63 -29 87 -68 87 -40 0 -76 -34 -107 -100 l-20 -45 6
60 c9 86 5 188 -9 197 -23 15 -32 0 -32 -51 0 -35 -5 -55 -15 -61 -13 -8 -16
1 -20 53 -4 45 -9 63 -20 65 -9 1 -19 0 -23 -4z m427 -160 c9 -3 16 -10 16
-15 0 -8 -51 -39 -64 -39 -7 0 4 31 17 48 11 14 10 14 31 6z"/>
<path d="M4762 1928 c-7 -7 -12 -39 -12 -75 0 -75 -14 -88 -53 -49 -32 31 -46
32 -81 5 -61 -48 -88 -178 -51 -249 47 -91 165 -6 165 119 0 53 16 78 25 39 3
-13 6 -63 8 -113 2 -83 4 -90 22 -90 19 0 20 5 16 120 l-3 121 43 19 c53 24
68 61 22 53 -15 -3 -36 -8 -45 -12 -15 -7 -17 0 -20 55 -3 63 -13 80 -36 57z
m-88 -170 c24 -34 20 -109 -7 -149 -25 -37 -55 -49 -68 -27 -22 33 -2 143 32
185 16 18 26 16 43 -9z"/>
<path d="M1405 1904 c-46 -50 -95 -236 -81 -307 21 -102 120 -100 209 4 l34
39 6 -36 c7 -40 41 -84 66 -84 27 0 81 39 94 67 12 27 12 27 17 -17 4 -37 9
-46 27 -48 24 -3 23 -5 48 108 17 80 43 141 62 147 17 6 31 -52 39 -160 7 -98
13 -115 37 -100 6 4 22 6 34 5 19 -3 23 4 33 55 16 82 49 179 64 192 27 23 40
-17 44 -128 4 -108 12 -134 38 -124 10 4 14 22 14 64 0 69 12 76 29 18 7 -22
21 -49 32 -60 39 -39 111 -13 145 54 l16 31 14 -40 c24 -69 78 -85 133 -38 35
29 61 98 43 116 -17 17 -39 2 -46 -33 -8 -42 -23 -59 -52 -59 -32 0 -47 39
-41 105 5 54 25 107 37 100 4 -3 10 -18 13 -35 5 -21 12 -30 27 -30 23 0 25
16 9 73 -10 36 -12 38 -46 35 -44 -4 -72 -37 -80 -96 -4 -31 -10 -42 -26 -44
-14 -2 -24 -14 -30 -38 -12 -48 -35 -72 -66 -68 -21 2 -29 12 -40 47 -8 26
-10 46 -5 48 34 11 109 71 112 89 4 29 -42 64 -84 64 -40 0 -71 -36 -80 -92
-8 -50 -20 -48 -27 4 -6 48 -35 92 -64 96 -28 4 -70 -35 -88 -83 l-15 -40 3
60 c2 54 0 60 -18 60 -17 0 -21 -9 -26 -60 -3 -33 -6 -50 -7 -38 -3 34 -34 92
-52 98 -35 11 -70 -14 -95 -67 l-25 -53 2 60 c3 54 1 60 -17 60 -14 0 -21 -9
-25 -30 -6 -29 -6 -29 -14 -7 -4 13 -19 27 -33 33 -39 14 -83 -16 -113 -79
-16 -32 -31 -52 -42 -52 -10 0 -24 -12 -32 -27 -18 -35 -64 -79 -92 -87 -40
-12 -57 19 -51 88 8 78 42 188 65 209 17 15 19 15 35 -3 19 -22 47 -17 47 10
0 50 -76 66 -115 24z m294 -142 c10 -18 15 -60 13 -104 -2 -36 -53 -94 -75
-85 -24 9 -31 52 -18 112 11 49 40 95 61 95 5 0 14 -8 19 -18z m621 -2 c0 -6
-15 -15 -62 -38 -14 -7 -8 26 7 41 14 15 55 12 55 -3z"/>
<path d="M2722 1908 c2 -13 10 -23 18 -23 8 0 16 10 18 23 3 17 -2 22 -18 22
-16 0 -21 -5 -18 -22z"/>
<path d="M4903 1800 c-58 -35 -81 -111 -43 -145 15 -14 31 -17 75 -13 46 4 55
2 53 -10 -5 -25 -55 -55 -100 -61 -34 -5 -43 -10 -43 -26 0 -47 112 -19 165
41 34 39 36 52 16 80 -12 15 -27 19 -73 19 -55 0 -58 1 -61 26 -5 42 26 61
111 68 4 1 7 10 7 21 0 16 -7 20 -37 20 -21 0 -52 -9 -70 -20z"/>
<path d="M673 1090 c-87 -53 -83 -188 7 -235 38 -19 113 -19 151 0 61 32 87
121 54 185 -34 66 -144 92 -212 50z"/>
<path d="M5123 420 c-87 -53 -83 -188 7 -235 38 -19 113 -19 151 0 61 32 87
121 54 185 -34 66 -144 92 -212 50z m141 -15 c59 -28 81 -96 51 -155 -41 -79
-179 -79 -220 0 -55 106 56 208 169 155z"/>
</g>
</svg>
