<svg xmlns="http://www.w3.org/2000/svg" version="1.1" xmlnsXlink="http://www.w3.org/1999/xlink" xmlns:svgjs="http://svgjs.dev/svgjs" width="1000" height="285" viewBox="0 0 1000 285"><g transform="matrix(1,0,0,1,-0.6056348047761162,0.5322782658633685)"><svg viewBox="0 0 396 113" data-background-color="#dedede" preserveAspectRatio="xMidYMid meet" height="285" width="1000" xmlns="http://www.w3.org/2000/svg" xmlnsXlink="http://www.w3.org/1999/xlink"><defs></defs><g id="tight-bounds" transform="matrix(1,0,0,1,0.24008861730862918,-0.21096486965052463)"><svg viewBox="0 0 395.52 113.42200853295779" height="113.42200853295779" width="395.52"><g><svg viewBox="0 0 395.52 113.42200853295779" height="113.42200853295779" width="395.52"><g><svg viewBox="0 0 395.52 113.42200853295779" height="113.42200853295779" width="395.52"><g><svg viewBox="0 0 395.52 113.42200853295779" height="113.42200853295779" width="395.52"><g><svg viewBox="0 0 395.52 87.55216777193255" height="87.55216777193255" width="395.52"><path d="M394.594 18.778C392.735 9.69 387.435 7.164 387.435 7.164 371.165-2.197 350.86-0.179 332.619 1.166 300.414 1.22 268.339 3.22 236.208 4.292 168.767 4.456 100.749 1.766 33.643 8.4 27.339 10.436-6.54 8.8 1.121 19.942 3.129 24.576 10.456 29.72 10.232 33.973 11.236 34.718 12.631 33.01 13.226 34.082 15.309 36.972 18.711 35.609 21.501 37.318 17.614 41.88 20.403 45.678 23.062 49.659 18.377 50.695 12.371 50.204 9.675 53.639 9.396 56.129 7.89 55.657 6.235 55.548 5.026 55.475 2.59 55.748 2.999 56.529 4.394 59.201-1.594 60.746 2.162 63.363-0.422 66.199 3.948 68.653 3.353 71.724 3.278 72.342 3.687 72.869 4.338 73.015 7.22 73.796 3.018 75.323 3.464 76.977 33.029 88.282 65.104 80.467 95.394 85.665 103.259 82.03 97.346 86.956 100.489 86.192 102.943 85.302 104.728 88.991 107.499 86.901 107.927 86.301 107.276 84.884 108.8 85.156 109.6 85.302 110.307 85.265 110.418 84.429 110.586 83.175 109.117 83.957 108.726 83.302 112.947 79.994 111.906 87.864 115.866 87.537 115.68 86.574 114.528 85.193 116.889 85.374 119.232 83.993 119.306 82.848 121.389 85.956 121.463 86.628 121.835 87.101 122.43 87.428 128.938 84.047 135.409 88.628 142.233 87.101 146.417 85.429 150.433 88.01 154.672 87.374 156.16 86.865 157.666 85.956 159.098 87.483 176.632 87.81 195.319 86.447 211.943 87.537 256.364 85.502 303.835 88.373 350.674 85.683 361.719 84.647 373.192 83.175 383.958 81.994 383.958 81.994 392.679 78.758 392.679 64.218S394.538 51.495 394.817 39.917C395.096 28.339 396.398 27.866 394.538 18.778Z" opacity="1" fill="#374151" data-fill-palette-color="tertiary"></path><g transform="matrix(1,0,0,1,55.76832,26.068561146666667)"><svg width="283.98335999999995" viewBox="2.200000047683716 -31.549999237060547 256.9700012207031 32.04999923706055" height="35.41504547859921" data-palette-color="#dedede"><path d="M25.3-16.2L25.3-16.2Q25.3 0 12.5 0L12.5 0 2.2 0 2.2-31.05 12.7-31.05Q19.55-31.05 22.43-27.23 25.3-23.4 25.3-16.2ZM12.35-7.2Q15-7.2 15.78-9.08 16.55-10.95 16.55-15.38 16.55-19.8 15.73-21.65 14.9-23.5 12.2-23.5L12.2-23.5 10.7-23.5 10.7-7.2 12.35-7.2ZM45.1-31.05L50.8 0 42.45 0 41.5-4.9 35.6-4.9 34.65 0 26.7 0 32.4-31.05 45.1-31.05ZM36.7-10.75L40.55-10.75 38.8-21.85 38.45-21.85 36.7-10.75ZM62.4-31.05L62.4 0 53.9 0 53.9-31.05 62.4-31.05ZM83.59-6.95L83.09 0 67.29 0 67.29-31.05 75.84-31.05 75.84-6.95 83.59-6.95ZM97.39-31.05L106.39-31.05 98.99-9.6 98.99 0 90.49 0 90.49-9.6 83.19-31.05 92.59-31.05 94.84-20.95 95.24-20.95 97.39-31.05ZM140.34-21.2L140.34-21.2Q140.34-18.4 139.49-16.55 138.64-14.7 136.84-13.2L136.84-13.2 140.99 0 131.74 0 128.64-11.2 127.49-11.2 127.49 0 119.09 0 119.09-31.05 130.69-31.05Q135.69-31.05 138.01-28.7 140.34-26.35 140.34-21.2ZM128.79-16.45Q130.09-16.45 130.64-17.2 131.19-17.95 131.19-19.93 131.19-21.9 130.64-22.68 130.09-23.45 128.84-23.45L128.84-23.45 127.49-23.45 127.49-16.45 128.79-16.45ZM161.08-7L160.58 0 143.78 0 143.78-31.05 161.08-31.05 160.58-23.4 152.33-23.4 152.33-18.75 159.48-18.75 159.48-12.15 152.33-12.15 152.33-7 161.08-7ZM171.68-15.23Q171.68-10.8 172.56-8.93 173.43-7.05 175.43-7.05 177.43-7.05 181.08-8L181.08-8 182.38-0.95Q178.43 0.5 174.43 0.5L174.43 0.5Q168.43 0.5 165.71-3.48 162.98-7.45 162.98-15.33 162.98-23.2 165.83-27.38 168.68-31.55 175.13-31.55L175.13-31.55Q178.93-31.55 182.38-29.95L182.38-29.95 181.03-22.2Q177.13-23.5 175.58-23.5L175.58-23.5Q173.38-23.5 172.53-21.58 171.68-19.65 171.68-15.23ZM186.35-27.8Q189.23-31.55 195.78-31.55 202.33-31.55 205.15-27.85 207.98-24.15 207.98-15.83 207.98-7.5 205.08-3.5 202.18 0.5 195.68 0.5 189.18 0.5 186.33-3.45 183.48-7.4 183.48-15.73 183.48-24.05 186.35-27.8ZM199.38-15.8Q199.38-20.4 198.65-22.03 197.93-23.65 195.7-23.65 193.48-23.65 192.83-22.03 192.18-20.4 192.18-15.85L192.18-15.85 192.18-14.65Q192.18-9.8 192.9-8.28 193.63-6.75 195.85-6.75 198.08-6.75 198.73-8.2 199.38-9.65 199.38-14.2L199.38-14.2 199.38-15.8ZM232.63-21.2L232.63-21.2Q232.63-18.4 231.78-16.55 230.93-14.7 229.13-13.2L229.13-13.2 233.28 0 224.03 0 220.93-11.2 219.78-11.2 219.78 0 211.38 0 211.38-31.05 222.98-31.05Q227.98-31.05 230.3-28.7 232.63-26.35 232.63-21.2ZM221.08-16.45Q222.38-16.45 222.93-17.2 223.48-17.95 223.48-19.93 223.48-21.9 222.93-22.68 222.38-23.45 221.13-23.45L221.13-23.45 219.78-23.45 219.78-16.45 221.08-16.45ZM259.17-16.2L259.17-16.2Q259.17 0 246.37 0L246.37 0 236.07 0 236.07-31.05 246.57-31.05Q253.42-31.05 256.3-27.23 259.17-23.4 259.17-16.2ZM246.22-7.2Q248.87-7.2 249.65-9.08 250.42-10.95 250.42-15.38 250.42-19.8 249.6-21.65 248.77-23.5 246.07-23.5L246.07-23.5 244.57-23.5 244.57-7.2 246.22-7.2Z" opacity="1" transform="matrix(1,0,0,1,0,0)" fill="#dedede" class="undefined-text-0" data-fill-palette-color="quaternary" id="text-0"></path></svg></g></svg></g><g transform="matrix(1,0,0,1,155.33683186545946,95.91281004833833)"><svg viewBox="0 0 84.84633626908105 17.50919848461945" height="17.50919848461945" width="84.84633626908105"><g transform="matrix(1,0,0,1,0,0)"><svg width="84.84633626908105" viewBox="-1.600000023841858 -32.900001525878906 219.98001098632812 45.400001525878906" height="17.50919848461945" data-palette-color="#374151"><path d="M15.7-8.35L15.7-8.35Q15.7-7.75 15.65-7.3 15.6-6.85 15.5-6.45L15.5-6.45Q16.5-7.05 17.45-7.7 18.4-8.35 19.1-8.95L19.1-8.95 21.2-8.95Q19.65-7.15 17.78-5.63 15.9-4.1 13.55-2.7L13.55-2.7Q12.2-1.25 10.1-0.48 8 0.3 5.7 0.3L5.7 0.3Q2.35 0.3 0.38-1.53-1.6-3.35-1.6-6.1L-1.6-6.1Q-1.6-7.65-0.85-8.93-0.1-10.2 1.05-10.75L1.05-10.75Q2.75-13.8 4.23-17.28 5.7-20.75 7.2-25.55L7.2-25.55 14.6-26.55Q14.75-22.8 14.95-19.7 15.15-16.6 15.45-12.95L15.45-12.95Q15.6-10.85 15.65-10 15.7-9.15 15.7-8.35ZM7.5-20.15L7.5-20.15Q6.85-18.1 5.93-15.88 5-13.65 3.45-10.7L3.45-10.7Q4-10.45 4.3-10 4.6-9.55 4.6-8.95L4.6-8.95Q4.6-8 3.95-7.25 3.3-6.5 2.4-6.5L2.4-6.5Q1.9-6.5 1.55-6.68 1.2-6.85 1.05-7.15L1.05-7.15Q1.05-5.3 1.78-4.48 2.5-3.65 4.1-3.65L4.1-3.65Q6.15-3.65 7.3-4.85 8.45-6.05 8.45-8.3L8.45-8.3Q8.45-9 8.4-9.73 8.35-10.45 8.2-12.15L8.2-12.15Q7.95-14.5 7.8-16.3 7.65-18.1 7.5-20.15ZM20.45-23L20.85-25 22.5-25 24-31.9 31.4-32.9 29.7-25 32.7-25 32.3-23 29.3-23 26.1-8Q26-7.55 25.95-7.18 25.9-6.8 25.9-6.4L25.9-6.4Q25.9-5.4 26.37-4.98 26.85-4.55 27.95-4.55L27.95-4.55Q29.35-4.55 30.6-5.78 31.85-7 32.45-8.95L32.45-8.95 34.55-8.95Q32.95-4.4 30.25-2.05 27.55 0.3 24.05 0.3L24.05 0.3Q21.55 0.3 20.12-1.28 18.7-2.85 18.7-5.7L18.7-5.7Q18.7-6.35 18.8-7.18 18.9-8 19.1-8.95L19.1-8.95 22.1-23 20.45-23ZM48.7-22.7L48.7-22.7 48.7-22.35 49.25-25 56.45-25 52.85-8Q52.75-7.55 52.7-7.18 52.65-6.8 52.65-6.4L52.65-6.4Q52.65-5.3 53.15-4.78 53.65-4.25 54.7-4.25L54.7-4.25Q56-4.25 57.05-5.48 58.1-6.7 58.75-8.95L58.75-8.95 60.85-8.95Q59.25-4.35 56.7-2.02 54.15 0.3 50.8 0.3L50.8 0.3Q48.65 0.3 47.37-0.9 46.1-2.1 45.9-4.3L45.9-4.3Q44.35-2 42.47-0.85 40.6 0.3 38.45 0.3L38.45 0.3Q35.35 0.3 33.57-1.8 31.8-3.9 31.8-7.75L31.8-7.75Q31.8-10.55 32.65-13.6 33.5-16.65 35-19.15L35-19.15Q36.85-22.1 39.3-23.68 41.75-25.25 44.65-25.25L44.65-25.25Q46.6-25.25 47.65-24.58 48.7-23.9 48.7-22.7ZM45.85-8.95L48.25-20.25Q48.25-21 47.7-21.58 47.15-22.15 46.2-22.15L46.2-22.15Q43.45-22.15 41.32-17.55 39.2-12.95 39.2-8.45L39.2-8.45Q39.2-6.5 39.75-5.53 40.3-4.55 41.7-4.55L41.7-4.55Q43-4.55 44.22-5.8 45.45-7.05 45.85-8.95L45.85-8.95ZM67.09-4.55L67.09-4.55Q68.34-4.55 69.34-5.6 70.34-6.65 70.99-8.65L70.99-8.65 74.49-25 81.69-25 76.74-1.8Q79.24-2.7 80.67-4.33 82.09-5.95 83.04-8.95L83.04-8.95 85.14-8.95Q83.99-5.15 81.87-2.85 79.74-0.55 76.29 0.4L76.29 0.4 75.54 4Q74.64 8.2 72.39 10.35 70.14 12.5 66.54 12.5L66.54 12.5Q63.99 12.5 62.47 11.2 60.94 9.9 60.94 7.65L60.94 7.65Q60.94 5.2 62.97 3.33 64.99 1.45 69.09 0.2L69.09 0.2 69.69-2.5Q68.44-1.1 66.97-0.4 65.49 0.3 63.69 0.3L63.69 0.3Q61.19 0.3 59.77-1.28 58.34-2.85 58.34-5.7L58.34-5.7Q58.34-6.35 58.44-7.18 58.54-8 58.74-8.95L58.74-8.95 62.14-25 69.34-25 65.74-8Q65.69-7.7 65.64-7.38 65.59-7.05 65.59-6.75L65.59-6.75Q65.59-5.7 65.97-5.13 66.34-4.55 67.09-4.55ZM68.29 4.15L68.59 2.7Q66.09 3.65 64.89 4.67 63.69 5.7 63.69 6.95L63.69 6.95Q63.69 7.6 64.19 8.1 64.69 8.6 65.39 8.6L65.39 8.6Q66.24 8.6 67.04 7.4 67.84 6.2 68.29 4.15L68.29 4.15ZM102.24-4.55L102.24-4.55Q103.49-4.55 104.49-5.6 105.49-6.65 106.14-8.65L106.14-8.65 109.64-25 116.84-25 111.89-1.8Q114.39-2.7 115.81-4.33 117.24-5.95 118.19-8.95L118.19-8.95 120.29-8.95Q119.14-5.15 117.01-2.85 114.89-0.55 111.44 0.4L111.44 0.4 110.69 4Q109.79 8.2 107.54 10.35 105.29 12.5 101.69 12.5L101.69 12.5Q99.14 12.5 97.61 11.2 96.09 9.9 96.09 7.65L96.09 7.65Q96.09 5.2 98.11 3.33 100.14 1.45 104.24 0.2L104.24 0.2 104.84-2.5Q103.59-1.1 102.11-0.4 100.64 0.3 98.84 0.3L98.84 0.3Q96.34 0.3 94.91-1.28 93.49-2.85 93.49-5.7L93.49-5.7Q93.49-6.35 93.59-7.18 93.69-8 93.89-8.95L93.89-8.95 97.29-25 104.49-25 100.89-8Q100.84-7.7 100.79-7.38 100.74-7.05 100.74-6.75L100.74-6.75Q100.74-5.7 101.11-5.13 101.49-4.55 102.24-4.55ZM103.44 4.15L103.74 2.7Q101.24 3.65 100.04 4.67 98.84 5.7 98.84 6.95L98.84 6.95Q98.84 7.6 99.34 8.1 99.84 8.6 100.54 8.6L100.54 8.6Q101.39 8.6 102.19 7.4 102.99 6.2 103.44 4.15L103.44 4.15ZM117.49-7.7L117.49-7.7Q117.49-10.55 118.41-13.75 119.34-16.95 120.94-19.45L120.94-19.45Q122.79-22.4 125.39-23.93 127.99-25.45 131.19-25.45L131.19-25.45Q134.39-25.45 135.99-23.45 137.59-21.45 137.59-17.45L137.59-17.45Q137.69-17.4 137.81-17.38 137.94-17.35 138.14-17.35L138.14-17.35Q139.69-17.35 141.84-18.2 143.99-19.05 145.84-20.35L145.84-20.35 146.29-19Q144.89-17.5 142.56-16.4 140.24-15.3 137.44-14.85L137.44-14.85Q136.84-8.1 133.54-3.95 130.24 0.2 125.49 0.2L125.49 0.2Q121.59 0.2 119.54-1.8 117.49-3.8 117.49-7.7ZM131.59-22.4L131.59-22.4Q129.19-22.4 127.06-17.55 124.94-12.7 124.94-8.35L124.94-8.35Q124.94-6 125.46-5.15 125.99-4.3 127.49-4.3L127.49-4.3Q129.34-4.3 131.01-7.3 132.69-10.3 133.29-14.7L133.29-14.7Q132.59-14.85 132.26-15.38 131.94-15.9 131.94-16.8L131.94-16.8Q131.94-17.75 132.34-18.45 132.74-19.15 133.49-19.5L133.49-19.5Q133.39-21.1 132.96-21.75 132.54-22.4 131.59-22.4ZM148.48-4.55L148.48-4.55Q149.78-4.55 150.81-5.68 151.83-6.8 152.48-8.95L152.48-8.95 155.88-25 163.08-25 159.48-8Q159.38-7.55 159.33-7.18 159.28-6.8 159.28-6.4L159.28-6.4Q159.28-5.4 159.76-4.98 160.23-4.55 161.33-4.55L161.33-4.55Q162.63-4.55 163.68-5.7 164.73-6.85 165.38-8.95L165.38-8.95 167.48-8.95Q165.88-4.35 163.33-2.02 160.78 0.3 157.43 0.3L157.43 0.3Q155.28 0.3 153.98-0.93 152.68-2.15 152.48-4.45L152.48-4.45Q151.03-2.05 149.21-0.88 147.38 0.3 145.08 0.3L145.08 0.3Q142.58 0.3 141.16-1.28 139.73-2.85 139.73-5.7L139.73-5.7Q139.73-6.35 139.83-7.18 139.93-8 140.13-8.95L140.13-8.95 143.53-25 150.73-25 147.13-8Q147.03-7.6 147.01-7.28 146.98-6.95 146.98-6.6L146.98-6.6Q146.98-5.6 147.36-5.08 147.73-4.55 148.48-4.55ZM177.53-5.35L177.53-5.35Q177.53-6.25 177.76-7.6 177.98-8.95 178.68-11.9L178.68-11.9Q179.38-14.75 179.58-16 179.78-17.25 179.78-18.1L179.78-18.1Q179.78-19.35 179.33-20 178.88-20.65 177.98-20.65L177.98-20.65Q176.78-20.65 175.76-19.43 174.73-18.2 174.08-16.05L174.08-16.05 170.68 0 163.48 0 168.78-25 175.98-25 175.43-22.4Q176.68-23.8 178.13-24.5 179.58-25.2 181.28-25.2L181.28-25.2Q183.93-25.2 185.38-23.75 186.83-22.3 186.83-19.55L186.83-19.55Q186.83-18.4 186.56-16.82 186.28-15.25 185.48-12L185.48-12Q184.83-9.45 184.63-8.4 184.43-7.35 184.43-6.65L184.43-6.65Q184.43-5.6 184.93-5.08 185.43-4.55 186.43-4.55L186.43-4.55Q187.68-4.55 188.58-5.4 189.48-6.25 190.63-8.95L190.63-8.95 192.73-8.95Q191.13-4.3 188.86-2 186.58 0.3 183.43 0.3L183.43 0.3Q180.63 0.3 179.08-1.23 177.53-2.75 177.53-5.35ZM207.18-22.7L207.18-22.7 207.18-22.4 207.73-25 214.93-25 209.98-1.8Q212.48-2.7 213.9-4.33 215.33-5.95 216.28-8.95L216.28-8.95 218.38-8.95Q217.23-5.15 215.1-2.85 212.98-0.55 209.53 0.4L209.53 0.4 208.78 4Q207.88 8.2 205.63 10.35 203.38 12.5 199.78 12.5L199.78 12.5Q197.23 12.5 195.7 11.2 194.18 9.9 194.18 7.65L194.18 7.65Q194.18 5.2 196.2 3.33 198.23 1.45 202.33 0.2L202.33 0.2 202.93-2.45Q201.63-1.1 200.13-0.4 198.63 0.3 196.93 0.3L196.93 0.3Q193.83 0.3 192.05-1.8 190.28-3.9 190.28-7.75L190.28-7.75Q190.28-10.55 191.13-13.6 191.98-16.65 193.48-19.15L193.48-19.15Q195.33-22.1 197.78-23.68 200.23-25.25 203.13-25.25L203.13-25.25Q205.08-25.25 206.13-24.58 207.18-23.9 207.18-22.7ZM204.18-8.45L206.73-20.3Q206.68-21.1 206.13-21.63 205.58-22.15 204.68-22.15L204.68-22.15Q201.93-22.15 199.8-17.55 197.68-12.95 197.68-8.45L197.68-8.45Q197.68-6.5 198.23-5.53 198.78-4.55 200.18-4.55L200.18-4.55Q201.38-4.55 202.55-5.65 203.73-6.75 204.18-8.45L204.18-8.45ZM201.53 4.15L201.83 2.7Q199.33 3.65 198.13 4.67 196.93 5.7 196.93 6.95L196.93 6.95Q196.93 7.6 197.43 8.1 197.93 8.6 198.63 8.6L198.63 8.6Q199.48 8.6 200.28 7.4 201.08 6.2 201.53 4.15L201.53 4.15Z" opacity="1" transform="matrix(1,0,0,1,0,0)" fill="#374151" class="undefined-text-1" data-fill-palette-color="secondary" id="text-1"></path></svg></g></svg></g></svg></g></svg></g><g></g></svg></g></svg><rect width="395.52" height="113.42200853295779" fill="none" stroke="none" visibility="hidden"></rect></g></svg></g></svg>